# xmcd
#
# Track frame offsets: 
#        150
#        17724
#        35889
#        51202
#        66687
#        83288
#        101183
#        117224
#        132796
#        149877
#        165929
#        180323
#        197453
#        215108
#        233420
#        250774
#        264993
#        281492
#        297253
#        312096
#
# Disc length: 4392 seconds
#
# Revision: 2
# Processed by: cddbd v1.5.2PL0 Copyright (c) Steve Scherf et al.
# Submitted via: ExactAudioCopy v0.95b3
#
DISCID=21112614
DTITLE=Various Artist - HP200731
DYEAR=2007
DGENRE=Top 40
TTITLE0=Constantine - Everybody Loves
TTITLE1=Mandy Moore - Nothing That You Are [Radio Edit]
TTITLE2=Hilary Duff - Stranger [Radio Edit]
TTITLE3=Sean Kingston - Me Love [Album Version]
TTITLE4=Rihanna f Ne-Yo - Hate That I Love You [Radio Edit]
TTITLE5=Will.I.Am - I Got It From My Mama [Radio]
TTITLE6=Montana Da Mac f DJ UNK - Rock On
TTITLE7=Trey Songz - Can't Help But Wait [Album Version]
TTITLE8=Ja Rule f Lil Wayne - Uh-Ohhh!! [Radio Clean]
TTITLE9=Billy Ray Cyrus - Ready, Set, Don't Go [Single Version]
TTITLE10=Trace Adkins - I Got My Game On
TTITLE11=Carrie Underwood - So Small
TTITLE12=Hellyeah - Alcohaulin' Ass [Amended]
TTITLE13=Hurt - 10 Ton Brick
TTITLE14=Red Jumpsuit Apparatus - Your Guardian Angel
TTITLE15=Paula Deanda - Easy [Aspuration Radio Remix]
TTITLE16=Korn - Evolution [Dave Aude Radio Remix]
TTITLE17=Steven Curtis Chapman - Miracle Of The Moment [Album Version]
TTITLE18=Group 1 Crew - Can't Go On [Red Hot Mix]
TTITLE19=Storyside:B - Be Still [Album Version]
EXTD=DJGold.com
EXTT0=
EXTT1=
EXTT2=
EXTT3=
EXTT4=
EXTT5=
EXTT6=
EXTT7=
EXTT8=
EXTT9=
EXTT10=
EXTT11=
EXTT12=
EXTT13=
EXTT14=
EXTT15=
EXTT16=
EXTT17=
EXTT18=
EXTT19=
PLAYORDER=
